<?xml version="1.0" encoding="UTF-8"?>
<!-- Flat -->
<svg version="1.1" xmlns="http://www.w3.org/2000/svg" xmlns:xlink="http://www.w3.org/1999/xlink" width="283.4646pt" height="283.4646pt" viewBox="0 0 283.4646 283.4646">
<title>Untitled</title>
<rect x="0" y="0" width="283.4646" height="283.4646" fill="rgba(254,250,239,1)" />
<line x1="123.2419" y1="190.6961" x2="92.7684" y2="154.6867" fill="none" stroke="rgba(33,80,98,1)" stroke-miterlimit="10" />
<line x1="123.2419" y1="190.6961" x2="139.8174" y2="178.085" fill="none" stroke="rgba(33,80,98,1)" stroke-miterlimit="10" />
<line x1="92.7684" y1="154.6867" x2="139.8174" y2="178.085" fill="none" stroke="rgba(33,80,98,1)" stroke-miterlimit="10" />
<line x1="123.2419" y1="190.6961" x2="139.8174" y2="178.085" fill="none" stroke="rgba(33,80,98,1)" stroke-miterlimit="10" />
<line x1="123.2419" y1="190.6961" x2="178.085" y2="181.5064" fill="none" stroke="rgba(33,80,98,1)" stroke-miterlimit="10" />
<line x1="139.8174" y1="178.085" x2="178.085" y2="181.5064" fill="none" stroke="rgba(33,80,98,1)" stroke-miterlimit="10" />
<line x1="123.2419" y1="190.6961" x2="178.085" y2="181.5064" fill="none" stroke="rgba(33,80,98,1)" stroke-miterlimit="10" />
<line x1="123.2419" y1="190.6961" x2="154.6867" y2="160.2226" fill="none" stroke="rgba(33,80,98,1)" stroke-miterlimit="10" />
<line x1="178.085" y1="181.5064" x2="154.6867" y2="160.2226" fill="none" stroke="rgba(33,80,98,1)" stroke-miterlimit="10" />
<line x1="123.2419" y1="190.6961" x2="154.6867" y2="160.2226" fill="none" stroke="rgba(33,80,98,1)" stroke-miterlimit="10" />
<line x1="123.2419" y1="190.6961" x2="101.9582" y2="143.6471" fill="none" stroke="rgba(33,80,98,1)" stroke-miterlimit="10" />
<line x1="154.6867" y1="160.2226" x2="101.9582" y2="143.6471" fill="none" stroke="rgba(33,80,98,1)" stroke-miterlimit="10" />
<line x1="123.2419" y1="190.6961" x2="101.9582" y2="143.6471" fill="none" stroke="rgba(33,80,98,1)" stroke-miterlimit="10" />
<line x1="123.2419" y1="190.6961" x2="92.7684" y2="154.6867" fill="none" stroke="rgba(33,80,98,1)" stroke-miterlimit="10" />
<line x1="101.9582" y1="143.6471" x2="92.7684" y2="154.6867" fill="none" stroke="rgba(33,80,98,1)" stroke-miterlimit="10" />
<line x1="178.085" y1="181.5064" x2="139.8174" y2="178.085" fill="none" stroke="rgba(33,80,98,1)" stroke-miterlimit="10" />
<line x1="178.085" y1="181.5064" x2="181.5064" y2="139.8174" fill="none" stroke="rgba(33,80,98,1)" stroke-miterlimit="10" />
<line x1="139.8174" y1="178.085" x2="181.5064" y2="139.8174" fill="none" stroke="rgba(33,80,98,1)" stroke-miterlimit="10" />
<line x1="139.8174" y1="178.085" x2="92.7684" y2="154.6867" fill="none" stroke="rgba(33,80,98,1)" stroke-miterlimit="10" />
<line x1="139.8174" y1="178.085" x2="128.7779" y2="123.2419" fill="none" stroke="rgba(33,80,98,1)" stroke-miterlimit="10" />
<line x1="92.7684" y1="154.6867" x2="128.7779" y2="123.2419" fill="none" stroke="rgba(33,80,98,1)" stroke-miterlimit="10" />
<line x1="92.7684" y1="154.6867" x2="101.9582" y2="143.6471" fill="none" stroke="rgba(33,80,98,1)" stroke-miterlimit="10" />
<line x1="92.7684" y1="154.6867" x2="105.3796" y2="101.9582" fill="none" stroke="rgba(33,80,98,1)" stroke-miterlimit="10" />
<line x1="101.9582" y1="143.6471" x2="105.3796" y2="101.9582" fill="none" stroke="rgba(33,80,98,1)" stroke-miterlimit="10" />
<line x1="101.9582" y1="143.6471" x2="154.6867" y2="160.2226" fill="none" stroke="rgba(33,80,98,1)" stroke-miterlimit="10" />
<line x1="101.9582" y1="143.6471" x2="143.6471" y2="105.3796" fill="none" stroke="rgba(33,80,98,1)" stroke-miterlimit="10" />
<line x1="154.6867" y1="160.2226" x2="143.6471" y2="105.3796" fill="none" stroke="rgba(33,80,98,1)" stroke-miterlimit="10" />
<line x1="154.6867" y1="160.2226" x2="178.085" y2="181.5064" fill="none" stroke="rgba(33,80,98,1)" stroke-miterlimit="10" />
<line x1="154.6867" y1="160.2226" x2="190.6961" y2="128.7779" fill="none" stroke="rgba(33,80,98,1)" stroke-miterlimit="10" />
<line x1="178.085" y1="181.5064" x2="190.6961" y2="128.7779" fill="none" stroke="rgba(33,80,98,1)" stroke-miterlimit="10" />
<line x1="160.2226" y1="92.7684" x2="181.5064" y2="139.8174" fill="none" stroke="rgba(33,80,98,1)" stroke-miterlimit="10" />
<line x1="160.2226" y1="92.7684" x2="128.7779" y2="123.2419" fill="none" stroke="rgba(33,80,98,1)" stroke-miterlimit="10" />
<line x1="181.5064" y1="139.8174" x2="128.7779" y2="123.2419" fill="none" stroke="rgba(33,80,98,1)" stroke-miterlimit="10" />
<line x1="160.2226" y1="92.7684" x2="128.7779" y2="123.2419" fill="none" stroke="rgba(33,80,98,1)" stroke-miterlimit="10" />
<line x1="160.2226" y1="92.7684" x2="105.3796" y2="101.9582" fill="none" stroke="rgba(33,80,98,1)" stroke-miterlimit="10" />
<line x1="128.7779" y1="123.2419" x2="105.3796" y2="101.9582" fill="none" stroke="rgba(33,80,98,1)" stroke-miterlimit="10" />
<line x1="160.2226" y1="92.7684" x2="105.3796" y2="101.9582" fill="none" stroke="rgba(33,80,98,1)" stroke-miterlimit="10" />
<line x1="160.2226" y1="92.7684" x2="143.6471" y2="105.3796" fill="none" stroke="rgba(33,80,98,1)" stroke-miterlimit="10" />
<line x1="105.3796" y1="101.9582" x2="143.6471" y2="105.3796" fill="none" stroke="rgba(33,80,98,1)" stroke-miterlimit="10" />
<line x1="160.2226" y1="92.7684" x2="143.6471" y2="105.3796" fill="none" stroke="rgba(33,80,98,1)" stroke-miterlimit="10" />
<line x1="160.2226" y1="92.7684" x2="190.6961" y2="128.7779" fill="none" stroke="rgba(33,80,98,1)" stroke-miterlimit="10" />
<line x1="143.6471" y1="105.3796" x2="190.6961" y2="128.7779" fill="none" stroke="rgba(33,80,98,1)" stroke-miterlimit="10" />
<line x1="160.2226" y1="92.7684" x2="190.6961" y2="128.7779" fill="none" stroke="rgba(33,80,98,1)" stroke-miterlimit="10" />
<line x1="160.2226" y1="92.7684" x2="181.5064" y2="139.8174" fill="none" stroke="rgba(33,80,98,1)" stroke-miterlimit="10" />
<line x1="190.6961" y1="128.7779" x2="181.5064" y2="139.8174" fill="none" stroke="rgba(33,80,98,1)" stroke-miterlimit="10" />
<line x1="139.8174" y1="178.085" x2="128.7779" y2="123.2419" fill="none" stroke="rgba(33,80,98,1)" stroke-miterlimit="10" />
<line x1="139.8174" y1="178.085" x2="181.5064" y2="139.8174" fill="none" stroke="rgba(33,80,98,1)" stroke-miterlimit="10" />
<line x1="128.7779" y1="123.2419" x2="181.5064" y2="139.8174" fill="none" stroke="rgba(33,80,98,1)" stroke-miterlimit="10" />
<line x1="105.3796" y1="101.9582" x2="128.7779" y2="123.2419" fill="none" stroke="rgba(33,80,98,1)" stroke-miterlimit="10" />
<line x1="105.3796" y1="101.9582" x2="92.7684" y2="154.6867" fill="none" stroke="rgba(33,80,98,1)" stroke-miterlimit="10" />
<line x1="128.7779" y1="123.2419" x2="92.7684" y2="154.6867" fill="none" stroke="rgba(33,80,98,1)" stroke-miterlimit="10" />
<line x1="143.6471" y1="105.3796" x2="105.3796" y2="101.9582" fill="none" stroke="rgba(33,80,98,1)" stroke-miterlimit="10" />
<line x1="143.6471" y1="105.3796" x2="101.9582" y2="143.6471" fill="none" stroke="rgba(33,80,98,1)" stroke-miterlimit="10" />
<line x1="105.3796" y1="101.9582" x2="101.9582" y2="143.6471" fill="none" stroke="rgba(33,80,98,1)" stroke-miterlimit="10" />
<line x1="190.6961" y1="128.7779" x2="143.6471" y2="105.3796" fill="none" stroke="rgba(33,80,98,1)" stroke-miterlimit="10" />
<line x1="190.6961" y1="128.7779" x2="154.6867" y2="160.2226" fill="none" stroke="rgba(33,80,98,1)" stroke-miterlimit="10" />
<line x1="143.6471" y1="105.3796" x2="154.6867" y2="160.2226" fill="none" stroke="rgba(33,80,98,1)" stroke-miterlimit="10" />
<line x1="181.5064" y1="139.8174" x2="190.6961" y2="128.7779" fill="none" stroke="rgba(33,80,98,1)" stroke-miterlimit="10" />
<line x1="181.5064" y1="139.8174" x2="178.085" y2="181.5064" fill="none" stroke="rgba(33,80,98,1)" stroke-miterlimit="10" />
<line x1="190.6961" y1="128.7779" x2="178.085" y2="181.5064" fill="none" stroke="rgba(33,80,98,1)" stroke-miterlimit="10" />
</svg>